HIERARCHY
ROOT HipCenter
{
    OFFSET 0.0 0.0 -0.0
    CHANNELS 6 Xposition Yposition Zposition Zrotation Xrotation Yrotation
    JOINT Spine
    {
        OFFSET 0.0 9.787033081054688 0.0
        CHANNELS 3 Zrotation Xrotation Yrotation
        JOINT ShoulderCenter
        {
            OFFSET 0.0 28.435182571411133 0.0
            CHANNELS 3 Zrotation Xrotation Yrotation
            JOINT LeftShoulder
            {
                OFFSET 18.452661514282227 0.0 0.0
                CHANNELS 3 Zrotation Xrotation Yrotation
                JOINT LeftElbow
                {
                    OFFSET 29.938873291015625 0.0 0.0
                    CHANNELS 3 Zrotation Xrotation Yrotation
                    JOINT LeftWrist
                    {
                        OFFSET 28.813201904296875 0.0 0.0
                        CHANNELS 3 Zrotation Xrotation Yrotation
                        JOINT LeftHand
                        {
                            OFFSET 3.7268147468566895 0.0 0.0
                            CHANNELS 3 Zrotation Xrotation Yrotation
                            End Site
                            {
                                OFFSET 1.4907259941101074 0.0 0.0
                            }
                        }
                    }
                }
            }
            JOINT RightShoulder
            {
                OFFSET -18.452661514282227 0.0 0.0
                CHANNELS 3 Zrotation Xrotation Yrotation
                JOINT RightElbow
                {
                    OFFSET -29.938873291015625 0.0 0.0
                    CHANNELS 3 Zrotation Xrotation Yrotation
                    JOINT RightWrist
                    {
                        OFFSET -28.813201904296875 0.0 0.0
                        CHANNELS 3 Zrotation Xrotation Yrotation
                        JOINT RightHand
                        {
                            OFFSET -3.7268147468566895 0.0 0.0
                            CHANNELS 3 Zrotation Xrotation Yrotation
                            End Site
                            {
                                OFFSET -1.4907259941101074 0.0 0.0
                            }
                        }
                    }
                }
            }
            End Site
            {
                OFFSET 0.0 11.374073028564453 0.0
            }
        }
    }
    JOINT LeftHip
    {
        OFFSET 14.571001052856445 0.0 0.0
        CHANNELS 3 Zrotation Xrotation Yrotation
        JOINT LeftKnee
        {
            OFFSET 0.0 -39.30992126464844 0.0
            CHANNELS 3 Zrotation Xrotation Yrotation
            JOINT LeftAnkle
            {
                OFFSET 0.0 -42.284332275390625 0.0
                CHANNELS 3 Zrotation Xrotation Yrotation
                JOINT LeftFoot
                {
                    OFFSET 0.0 -10.247773170471191 0.0
                    CHANNELS 3 Zrotation Xrotation Yrotation
                    End Site
                    {
                        OFFSET 0.0 0.0 4.099109172821045
                    }
                }
            }
        }
    }
    JOINT RightHip
    {
        OFFSET -14.571001052856445 0.0 0.0
        CHANNELS 3 Zrotation Xrotation Yrotation
        JOINT RightKnee
        {
            OFFSET 0.0 -39.30992126464844 0.0
            CHANNELS 3 Zrotation Xrotation Yrotation
            JOINT RightAnkle
            {
                OFFSET 0.0 -42.284332275390625 0.0
                CHANNELS 3 Zrotation Xrotation Yrotation
                JOINT RightFoot
                {
                    OFFSET 0.0 -10.247773170471191 0.0
                    CHANNELS 3 Zrotation Xrotation Yrotation
                    End Site
                    {
                        OFFSET 0.0 0.0 4.099109172821045
                    }
                }
            }
        }
    }
}
MOTION
Frames: 10
Frame Time: 0.03333333333333333
4.0 -1.5 52.0 -4.666859713313871 -1.1652687224769613 0.9149399976988181 3.456338571113594 -0.49398848146219826 0.06013728214222788 -3.372891770656177e-08 1.6142229597363267e-07 -2.731774342921488 87.70997076191799 4.31751314469729 160.69029255890757 8.23521736226133e-07 1.4997757689141732e-06 62.16171007038341 3.137510513740019e-07 -0.5252647687305548 8.82654497312446 1.2722218725854065e-14 3.1805546814635168e-15 3.180554681463516e-15 -89.5890137136862 1.1490841849582314 -156.93408077483673 -3.354813869967361e-06 6.61816542232514e-07 -78.05897267182746 179.99999708498223 -24.779866107649042 138.39201137263458 0.0 0.0 -6.957463365701443e-16 7.2572112163837845 13.063403305708475 -32.20933952326156 -1.0346997476955357 -4.346872289000834 4.6423003328856645 82.69249932502895 -57.65504173290267 134.2846133256579 -1.7655625192200634e-31 6.361109362927033e-15 3.1805546814635164e-15 2.9627023964619505 6.839004624159476 18.354593948457968 -0.385349401135969 3.3275483548635867 2.4557687665529766 -72.30919333863189 -64.47071530228266 -110.55885581388279 0.0 0.0 1.5902773407317578e-15
4.099999904632568 -1.5 52.0 -4.7147555522965865 -1.1771976819968222 0.9146360579767959 3.7081382300215613 -0.48092689228102037 0.06028329798979617 -2.1766145868003934e-09 -1.1466929821282669e-07 -2.564436416677909 87.23163020328884 4.556397266097294 160.95421438150657 -1.6598359609980123e-06 9.375522836587643e-07 63.26280774087546 1.651594305297324e-06 0.5259524779640801 7.486607113969142 -8.827812596100317e-32 3.1805546814635168e-15 3.1805546814635168e-15 -89.21631082971578 0.8501407642822353 -156.4257850578863 -4.2035930867739564e-06 -1.366542539575754e-06 -82.38398306616759 179.99999994892005 -25.515647831413308 137.70522995116764 1.6552148617688095e-32 1.590277340731758e-15 -1.1927080055488184e-15 7.148873288083399 13.078529080337407 -32.08972954596707 -0.9583727358678269 -4.4514663280532645 4.744138176651139 83.35802557227012 -57.25713440376232 135.02366220545855 3.1805546814635164e-15 8.827812596100317e-32 3.1805546814635164e-15 2.8659350699355435 6.574721283802783 18.212033676532762 -0.25583531835451734 3.713581333261368 2.7492338346052434 -72.66158815026773 -64.40053696980142 -111.03352363871895 0.0 0.0 0.0
4.099999904632568 -1.5 52.0 -4.714755608152782 -1.7654750118118219 0.9499096025586687 3.924382451359259 0.498878071161888 -0.06436194055883451 -3.997371531654471e-08 4.595263170371129e-08 -2.1786969299118804 87.11478264486891 3.946559669112796 161.7176326904494 -5.695728004193445e-06 -1.5376158974525262e-06 64.20341469331402 5.405446163567054e-06 0.06482485425452637 7.11927771977398 6.361109362927035e-15 -3.1805546814635176e-15 3.1805546814635176e-15 -89.20151544730396 -1.1579630098106044 -157.01911079019257 5.145382957139244e-07 1.2885829987494876e-06 -85.39020600636569 -179.9999956953212 -31.618544200099006 139.89978314946615 0.0 0.0 -3.379339349054986e-15 7.18420038037725 13.65773256691281 -32.2011241557636 -0.8416516109569352 -4.382758168659463 4.6904147913614045 82.41940058500442 -57.766546621973575 134.03035026926088 -1.7655625192200634e-31 6.361109362927033e-15 3.1805546814635164e-15 2.8782181833974896 6.882834093645052 17.95443717645865 -0.2626563864667249 4.145232355540776 3.078609813119753 -72.72937032990741 -64.88140666900789 -111.11167295738626 -1.5902773407317584e-15 0.0 0.0
4.199999809265137 -1.600000023841858 51.70000076293945 -4.085618387283294 -0.5831582381091662 -0.23784017087823459 3.2856269803651608 -0.4056461941082466 0.05478413112470705 8.057943114755469e-08 1.138621574684516e-07 -1.1685124739044073 87.12171350814123 3.4668160310215863 162.1721365048391 -1.416973212979037e-06 5.383319268611818e-07 64.71663666863341 -8.606315022485046e-07 8.17299860668939 9.883597904206082 -3.1805546814635168e-15 -3.1805546814635168e-15 -3.1805546814635168e-15 -89.33995490070936 -5.054786166122204 -158.92874612125954 -1.6287398335406263e-06 9.340330482050688e-07 -87.52011163942315 -179.99999817112405 -43.70264269532378 144.7708574589982 0.0 0.0 4.47265502080807e-15 6.544243291417751 12.444901017399548 -32.48355636197471 -0.8852111703887608 -4.4522609534392625 4.826947952684069 85.3598760209511 -56.44412106771431 137.79612985729312 3.1805546814635168e-15 8.827812596100317e-32 3.1805546814635168e-15 2.111801515316891 4.774047554297147 17.39369788488335 -0.27906926627743545 4.987121561766307 3.698445451097496 -70.6237019343346 -65.35010428161556 -108.69583264811386 0.0 0.0 1.5902773407317588e-15
4.199999809265137 -1.600000023841858 51.599998474121094 -4.666858972804631 -1.165246395901469 -1.0520369121525743 4.05488345469383 0.6358522375852927 -0.08821211428311597 5.327679263749609e-08 5.7410296565756246e-08 -0.24083187107935572 87.1178579239925 2.138288933902432 162.94959939692674 -1.255366053534354e-06 -1.3543363770160242e-06 65.21906148143671 6.2175061727366986e-06 3.006893863175825 10.306472060581015 -6.3611093629270335e-15 3.1805546814635164e-15 6.3611093629270335e-15 -90.32818627594685 -9.370912635314747 -162.34378015362074 -2.228541937744042e-06 -9.344103497416697e-07 -89.65202477517778 179.99999761791508 -59.40197278974345 146.17569885090882 3.1805546814635168e-15 8.276074308844047e-32 2.9817700138720468e-15 6.955541859235165 12.97459023790506 -32.077636938579616 -0.8973172342794565 -4.146631665386967 4.475827246967286 87.58894417845082 -55.80614679146813 140.1059322646756 -3.1805546814635168e-15 8.827812596100317e-32 -3.1805546814635168e-15 2.6267122374308998 4.839393966204783 16.835229996968092 -0.28173218771310066 5.385146182546308 4.0411424854105675 -69.55921826595532 -65.63384499164214 -107.84135296787012 3.1805546814635168e-15 4.4139062980501586e-32 1.5902773407317584e-15
4.5 -1.4000000953674316 51.400001525878906 -4.085618662847938 -0.5831359823568714 0.6103727450424488 3.886915372194596 0.13975890684729966 -0.02034878203736914 1.0199665396086247e-08 2.2355238032213302e-08 -2.2198980251570943 86.84159048585015 0.7442935351985491 163.40834422947128 1.5847352566266553e-06 -6.256782697593394e-07 66.01245225266338 -1.5073410216906205e-06 -13.552566423949582 10.436930376281424 7.95138670365879e-15 -3.180554681463516e-15 3.1805546814635168e-15 -92.16444624720097 -14.05036682253614 -167.44144611167212 -1.7759040837357476e-07 1.4807973988715795e-06 -90.61972857577545 -179.99999716876565 -67.34236239052062 147.32897698542976 0.0 0.0 -5.06900902358248e-15 6.088371018892105 11.43041147833757 -31.757898746680176 -0.625726500851487 -3.595423180580591 3.8099370907520815 80.43601005302015 -56.52572529540997 132.13246017131976 0.0 0.0 -6.3611093629270335e-15 1.6253441956526489 4.885627362456376 18.961279815176873 0.05854472725931371 4.514908661984166 3.33235449636166 -72.77946356062442 -62.98239817683316 -111.28216927881859 -1.5902773407317584e-15 -6.620859447075238e-32 4.770832022195275e-15
4.5 -1.4000000953674316 51.20000076293945 -4.085618997362926 -0.5831582295877185 -1.089213624558534 3.673442182185784 0.6518512685783976 -0.08938603733993224 -3.937156870882938e-09 3.3329459316409857e-10 -0.7550131067498105 87.71663381380193 -1.00154763685277 164.14457348248573 1.4567024784144389e-06 1.6140126889889627e-07 66.57849220376784 2.0936975090455214e-06 -3.2366560411074974 10.538973391503289 0.0 6.3611093629270335e-15 0.0 -94.23356238008948 -18.121638825128567 -173.9842723034343 -2.775987800737805e-07 6.405176891905594e-07 -90.43488743700564 179.99999440291987 -74.20774906756486 147.35425716457877 0.0 0.0 -4.522351187705938e-15 5.901921538093423 11.786800432093445 -31.5784979302923 -0.5845003174239072 -3.5634204150502713 3.765507946855107 84.13257071307945 -55.806101905037515 136.0743117396332 -3.1805546814635168e-15 1.5902773407317584e-15 -3.1805546814635168e-15 1.6373043532430727 3.961947865413012 17.916623060372526 -0.1791711257272917 5.393466930556026 4.109453883798053 -69.61944548099041 -65.27172819987757 -108.40725398001983 0.0 0.0 -1.5902773407317582e-15
4.5 -1.4000000953674316 51.0 -3.5035314269931814 -1.0040956525716944e-08 -2.5343792251636508 2.8997139495622437 0.12829253488362538 -0.016397585726691914 -2.7791903403313136e-09 -4.1962739505103524e-10 0.8110682998824541 88.48432525866346 -3.0830381337097506 164.9465245643955 1.1189235963354291e-06 -7.138520332482975e-07 66.91158715501628 1.8454772763040707e-06 -2.9302122767718672 10.146740664609851 3.1805546814635168e-15 0.0 0.0 -95.76060212512785 -20.609891163060254 179.81582206058613 -4.989480579476801e-06 4.783649243470016e-06 -89.28797572758239 -179.99999937267296 -72.2031122988423 145.81187751110141 -4.103553511468507e-32 -1.5902773407317582e-15 -2.956921930423113e-15 5.025146206643371 11.476211432560548 -31.120578577937586 -0.5809483711351437 -3.475566017408227 3.6111573647051376 87.58627269134583 -54.691132919433805 139.43356582541725 3.1805546814635164e-15 4.770832022195274e-15 3.1805546814635164e-15 1.1378480492761236 2.983106706085695 17.48938257647622 -0.4500548757424228 5.542977475248671 4.315127949700028 -67.9777437773268 -66.21103123422535 -107.14623972682593 3.1805546814635168e-15 -5.565970692561154e-15 1.5448672043175555e-31
4.400000095367432 -1.4000000953674316 50.900001525878906 -4.127591164712805 -1.1062096652798204e-09 -3.3902279645736217 3.520451876609285 0.2084187251227401 -0.027793115803694694 2.5922494591539022e-08 2.162430179895429e-09 1.6752168606434839 88.9212051014323 -4.779806974921845 165.51632282672063 1.7788760071191165e-06 1.9271224032845126e-06 67.61497546131766 1.135585715036468e-06 -0.12031047349985795 9.591478827219605 9.54166404439055e-15 -2.648343778830095e-31 -3.1805546814635168e-15 -97.04302430054793 -22.314791232443728 173.63871314873953 -8.083563008278243e-07 -3.248993981171642e-06 -86.11362239179313 179.99999779051663 -68.15511053225006 145.10890214106618 -1.5902773407317584e-15 1.089683117331133e-31 -7.851994369863057e-15 5.768481532454464 11.901982363135698 -31.183584673869248 -0.785985669676361 -3.6481157886615914 3.8354738721842616 91.09730118718612 -54.11921389095392 143.380605458629 0.0 0.0 -3.1805546814635176e-15 1.7466944018855715 2.613654741402419 16.564205287099245 -0.32829483259489717 5.619103880723945 4.405065000034469 -65.87195354681711 -67.62576607645833 -104.9286269297335 1.7655625192200634e-31 6.3611093629270335e-15 -3.1805546814635168e-15
4.300000190734863 -1.5 50.80000305175781 -4.085616116052379 0.5831360343991076 -4.278195167683692 3.3487975782623067 -0.7351615701890346 0.09935428665385618 2.9770786344230554e-08 -1.911108548439127e-09 2.765691799638292 89.36442706247067 -6.851888669407196 166.05667277532459 -2.1649460881981745e-06 5.770655436728512e-07 67.85458598562533 3.3741352739627673e-06 -8.86110145248209 10.705760904673106 3.1805546814635176e-15 3.1805546814635176e-15 -3.1805546814635176e-15 -97.53122858356852 -23.078734513532815 168.78471030033737 1.6164160182460908e-06 -7.614855771660772e-07 -81.88963106525503 -179.99999662360884 -55.64931371191 144.45904665139946 0.0 0.0 -4.572047354603805e-15 5.863544447071259 11.758718383062728 -31.553208918617983 -0.9981221623441611 -3.7865066830053977 3.9611426988811296 96.54775637980525 -53.948906046989116 148.43981270243506 3.180554681463516e-15 -1.590277340731758e-15 4.4139062980501586e-32 1.866524019475719 1.789298869232804 16.118811797468652 -0.43450479657477803 5.751852611329593 4.44652885595063 -64.21066910905458 -68.73634877995596 -102.63067838012256 1.5902773407317584e-15 6.3611093629270335e-15 -1.5902773407317584e-15
